<svg xmlns="http://www.w3.org/2000/svg" viewBox="0 0 179.496 60"><defs><style>.a{fill:#a6a6a6;}.b{fill:#fff;}</style></defs><path class="a" d="M165.2,0H14.3c-.55,0-1.094,0-1.642,0-.459,0-.915.012-1.378.019A19.8,19.8,0,0,0,8.276.287a10.013,10.013,0,0,0-2.851.94A9.673,9.673,0,0,0,3,2.995,9.356,9.356,0,0,0,1.23,5.427,9.861,9.861,0,0,0,.292,8.282a19.521,19.521,0,0,0-.269,3c-.014.46-.016.922-.023,1.382V47.339c.007.466.009.917.023,1.383a19.521,19.521,0,0,0,.269,3,9.857,9.857,0,0,0,.938,2.856A9.313,9.313,0,0,0,3,57,9.432,9.432,0,0,0,5.425,58.77a10.026,10.026,0,0,0,2.851.946,20.2,20.2,0,0,0,3.006.265c.464.01.919.016,1.378.016.549,0,1.092,0,1.642,0H165.2c.539,0,1.087,0,1.626,0,.457,0,.926-.006,1.383-.016a19.919,19.919,0,0,0,3-.265,10.211,10.211,0,0,0,2.862-.946A9.439,9.439,0,0,0,176.5,57a9.579,9.579,0,0,0,1.772-2.421,9.919,9.919,0,0,0,.929-2.856,20.178,20.178,0,0,0,.278-3c.006-.466.006-.917.006-1.383.012-.545.012-1.087.012-1.641V14.3c0-.549,0-1.094-.012-1.638,0-.46,0-.921-.006-1.381a20.311,20.311,0,0,0-.278-3,9.933,9.933,0,0,0-.929-2.855,9.692,9.692,0,0,0-4.2-4.2,10.134,10.134,0,0,0-2.862-.94,19.537,19.537,0,0,0-3-.265c-.457-.007-.926-.016-1.383-.019-.539,0-1.087,0-1.626,0Z"/><path d="M12.667,58.688c-.457,0-.9-.006-1.356-.016a19.005,19.005,0,0,1-2.8-.245,8.825,8.825,0,0,1-2.485-.822,8.118,8.118,0,0,1-2.1-1.525,7.981,7.981,0,0,1-1.531-2.1A8.555,8.555,0,0,1,1.582,51.5a18.658,18.658,0,0,1-.25-2.812c-.01-.316-.022-1.37-.022-1.37V12.667s.013-1.037.022-1.342A18.66,18.66,0,0,1,1.58,8.517,8.612,8.612,0,0,1,2.4,6.024a8.056,8.056,0,0,1,1.523-2.1,8.346,8.346,0,0,1,2.1-1.534A8.762,8.762,0,0,1,8.5,1.577a18.9,18.9,0,0,1,2.813-.246l1.354-.018H166.822l1.37.019a18.508,18.508,0,0,1,2.788.244,8.888,8.888,0,0,1,2.506.822,8.39,8.39,0,0,1,3.622,3.629,8.656,8.656,0,0,1,.8,2.473,19.636,19.636,0,0,1,.261,2.831c0,.425,0,.881,0,1.335.012.562.012,1.1.012,1.638V45.7c0,.545,0,1.077-.012,1.613,0,.488,0,.935-.006,1.4a19.188,19.188,0,0,1-.256,2.78,8.6,8.6,0,0,1-.81,2.505,8.223,8.223,0,0,1-1.523,2.079,8.14,8.14,0,0,1-2.1,1.534,8.8,8.8,0,0,1-2.5.825,18.922,18.922,0,0,1-2.8.245c-.439.01-.9.016-1.346.016l-1.626,0Z"/><path class="b" d="M37.153,30.451a7.423,7.423,0,0,1,3.535-6.228A7.6,7.6,0,0,0,34.7,20.986c-2.519-.264-4.961,1.507-6.244,1.507-1.308,0-3.285-1.481-5.413-1.437a7.975,7.975,0,0,0-6.709,4.092c-2.9,5.023-.737,12.4,2.042,16.464,1.39,1.988,3.015,4.209,5.141,4.13,2.081-.086,2.858-1.327,5.369-1.327,2.488,0,3.217,1.327,5.387,1.277,2.233-.036,3.639-2,4.981-4a16.445,16.445,0,0,0,2.278-4.639A7.17,7.17,0,0,1,37.153,30.451Z"/><path class="b" d="M33.056,18.316a7.309,7.309,0,0,0,1.672-5.236,7.439,7.439,0,0,0-4.811,2.489A6.954,6.954,0,0,0,28.2,20.611,6.145,6.145,0,0,0,33.056,18.316Z"/><path class="b" d="M63.453,40.709h-7.1l-1.705,5.035H51.641l6.725-18.627h3.125l6.725,18.627H65.157Zm-6.364-2.323h5.628l-2.774-8.171h-.078Z"/><path class="b" d="M82.74,38.955c0,4.22-2.259,6.932-5.667,6.932A4.6,4.6,0,0,1,72.8,43.511h-.064v6.727H69.948V32.164h2.7v2.259H72.7a4.816,4.816,0,0,1,4.324-2.4C80.468,32.021,82.74,34.746,82.74,38.955Zm-2.866,0c0-2.75-1.421-4.557-3.589-4.557-2.13,0-3.562,1.846-3.562,4.557,0,2.736,1.433,4.569,3.562,4.569C78.453,43.523,79.874,41.729,79.874,38.955Z"/><path class="b" d="M97.687,38.955c0,4.22-2.259,6.932-5.667,6.932a4.6,4.6,0,0,1-4.273-2.376h-.064v6.727H84.895V32.164h2.7v2.259h.051a4.816,4.816,0,0,1,4.324-2.4C95.415,32.021,97.687,34.746,97.687,38.955Zm-2.865,0c0-2.75-1.421-4.557-3.589-4.557-2.13,0-3.562,1.846-3.562,4.557,0,2.736,1.433,4.569,3.562,4.569C93.4,43.523,94.822,41.729,94.822,38.955Z"/><path class="b" d="M107.566,40.554c.207,1.847,2,3.06,4.453,3.06,2.35,0,4.04-1.213,4.04-2.878,0-1.446-1.02-2.312-3.434-2.9l-2.414-.582c-3.42-.826-5.008-2.426-5.008-5.021,0-3.214,2.8-5.421,6.778-5.421,3.936,0,6.634,2.208,6.725,5.421h-2.814c-.168-1.859-1.705-2.981-3.951-2.981s-3.782,1.135-3.782,2.788c0,1.317.981,2.092,3.382,2.685l2.052.5c3.822.9,5.41,2.439,5.41,5.164,0,3.485-2.776,5.667-7.191,5.667-4.131,0-6.92-2.131-7.1-5.5h2.854Z"/><path class="b" d="M125.019,28.95v3.214H127.6v2.208h-2.583v7.487c0,1.163.517,1.705,1.652,1.705a8.977,8.977,0,0,0,.917-.064v2.194a7.628,7.628,0,0,1-1.548.129c-2.75,0-3.822-1.033-3.822-3.667V34.372h-1.975V32.164h1.975V28.95Z"/><path class="b" d="M129.1,38.955c0-4.273,2.517-6.958,6.441-6.958s6.442,2.685,6.442,6.958-2.492,6.958-6.442,6.958S129.1,43.239,129.1,38.955Zm10.043,0c0-2.931-1.343-4.661-3.6-4.661s-3.6,1.743-3.6,4.661c0,2.943,1.342,4.66,3.6,4.66S139.14,41.9,139.14,38.955Z"/><path class="b" d="M144.279,32.164h2.659v2.312H147a3.239,3.239,0,0,1,3.267-2.454,4.316,4.316,0,0,1,.955.1v2.607a3.893,3.893,0,0,0-1.252-.168,2.809,2.809,0,0,0-2.9,3.125v8.055h-2.788Z"/><path class="b" d="M164.076,41.755c-.375,2.465-2.776,4.157-5.848,4.157-3.951,0-6.4-2.647-6.4-6.894S154.29,32,158.111,32c3.757,0,6.12,2.581,6.12,6.7v.955h-9.592v.168a3.537,3.537,0,0,0,3.653,3.847,3.072,3.072,0,0,0,3.136-1.91h2.648ZM154.653,37.7h6.79a3.266,3.266,0,0,0-3.331-3.447A3.438,3.438,0,0,0,154.653,37.7Z"/><path class="b" d="M56.739,13.1c2.654,0,4.211,1.631,4.211,4.447,0,2.859-1.545,4.5-4.211,4.5H53.506V13.1ZM54.9,20.781h1.688c1.872,0,2.952-1.166,2.952-3.219,0-2.022-1.1-3.2-2.952-3.2H54.9Z"/><path class="b" d="M62.521,18.667c0-2.177,1.216-3.505,3.188-3.505s3.183,1.327,3.183,3.505-1.21,3.51-3.183,3.51S62.521,20.856,62.521,18.667Zm5,0c0-1.464-.658-2.32-1.812-2.32S63.9,17.2,63.9,18.667s.652,2.325,1.811,2.325S67.521,20.136,67.521,18.667Z"/><path class="b" d="M77.36,22.047H75.977l-1.4-4.975h-.105l-1.39,4.975h-1.37l-1.862-6.754h1.352l1.21,5.154h.1L73.9,15.293h1.279l1.389,5.154h.105l1.2-5.154h1.333Z"/><path class="b" d="M80.78,15.292h1.283v1.073h.1a2.021,2.021,0,0,1,2.016-1.2,2.2,2.2,0,0,1,2.338,2.512v4.373H85.184V18.009c0-1.085-.472-1.625-1.458-1.625A1.55,1.55,0,0,0,82.113,18.1v3.951H80.78Z"/><path class="b" d="M88.641,12.656h1.333v9.391H88.641Z"/><path class="b" d="M91.827,18.667c0-2.177,1.216-3.505,3.188-3.505S98.2,16.489,98.2,18.667s-1.211,3.51-3.184,3.51S91.827,20.856,91.827,18.667Zm5,0c0-1.464-.658-2.32-1.812-2.32S93.2,17.2,93.2,18.667s.652,2.325,1.811,2.325S96.826,20.136,96.826,18.667Z"/><path class="b" d="M99.6,20.136c0-1.216.9-1.917,2.512-2.016l1.83-.1v-.583c0-.713-.472-1.116-1.383-1.116-.744,0-1.26.273-1.408.751H99.861c.136-1.16,1.228-1.9,2.76-1.9,1.693,0,2.648.843,2.648,2.27v4.615h-1.283V21.1h-.105a2.273,2.273,0,0,1-2.029,1.061A2.043,2.043,0,0,1,99.6,20.136Zm4.342-.577v-.565l-1.649.1c-.93.062-1.352.379-1.352.974s.527.962,1.252.962A1.591,1.591,0,0,0,103.943,19.559Z"/><path class="b" d="M107.022,18.667c0-2.134,1.1-3.486,2.8-3.486a2.225,2.225,0,0,1,2.071,1.185h.1v-3.71h1.333v9.391h-1.277V20.98h-.105a2.345,2.345,0,0,1-2.121,1.178C108.108,22.158,107.022,20.806,107.022,18.667Zm1.377,0c0,1.433.675,2.3,1.805,2.3s1.818-.875,1.818-2.289-.7-2.3-1.818-2.3S108.4,17.246,108.4,18.667Z"/><path class="b" d="M118.845,18.667c0-2.177,1.216-3.505,3.188-3.505s3.183,1.327,3.183,3.505-1.21,3.51-3.183,3.51S118.845,20.856,118.845,18.667Zm5,0c0-1.464-.658-2.32-1.812-2.32s-1.811.856-1.811,2.32.652,2.325,1.811,2.325S123.844,20.136,123.844,18.667Z"/><path class="b" d="M127,15.292h1.283v1.073h.1a2.021,2.021,0,0,1,2.016-1.2,2.2,2.2,0,0,1,2.338,2.512v4.373h-1.333V18.009c0-1.085-.472-1.625-1.458-1.625a1.55,1.55,0,0,0-1.613,1.712v3.951H127V15.292Z"/><path class="b" d="M140.273,13.611v1.712h1.463v1.123h-1.463v3.473c0,.708.292,1.017.955,1.017a4.291,4.291,0,0,0,.508-.031v1.11a4.337,4.337,0,0,1-.725.068c-1.482,0-2.073-.521-2.073-1.824V16.445h-1.072V15.322h1.072V13.61h1.335Z"/><path class="b" d="M143.557,12.656h1.321v3.722h.1a2.079,2.079,0,0,1,2.06-1.21,2.225,2.225,0,0,1,2.326,2.518v4.361h-1.334V18.015c0-1.079-.5-1.625-1.444-1.625a1.578,1.578,0,0,0-1.7,1.712v3.945h-1.333Z"/><path class="b" d="M157.142,20.223a2.742,2.742,0,0,1-2.927,1.954c-1.935,0-3.12-1.327-3.12-3.486s1.21-3.529,3.114-3.529c1.879,0,3.013,1.284,3.013,3.4v.465h-4.77v.075a1.785,1.785,0,0,0,1.8,1.935,1.62,1.62,0,0,0,1.607-.819Zm-4.689-2.177h3.412A1.63,1.63,0,0,0,154.2,16.3,1.728,1.728,0,0,0,152.453,18.046Z"/></svg>