<svg xmlns="http://www.w3.org/2000/svg" xmlns:xlink="http://www.w3.org/1999/xlink" viewBox="0 0 202.5 60"><defs><style>.a{fill:#a6a6a6;}.b,.c,.j{fill:#fff;}.b{stroke:#fff;stroke-miterlimit:10;stroke-width:0.3px;}.d{fill:url(#a);}.e{fill:url(#b);}.f{fill:url(#c);}.g{fill:url(#d);}.h{opacity:0.2;}.i{opacity:0.12;}.j{opacity:0.25;}</style><linearGradient id="a" x1="0.915" y1="4.726" x2="-0.383" y2="4.057" gradientUnits="objectBoundingBox"><stop offset="0" stop-color="#00a0ff"/><stop offset="0.007" stop-color="#00a1ff"/><stop offset="0.26" stop-color="#00beff"/><stop offset="0.512" stop-color="#00d2ff"/><stop offset="0.76" stop-color="#00dfff"/><stop offset="1" stop-color="#00e3ff"/></linearGradient><linearGradient id="b" x1="1.076" y1="11.567" x2="-1.305" y2="11.567" gradientUnits="objectBoundingBox"><stop offset="0" stop-color="#ffe000"/><stop offset="0.409" stop-color="#ffbd00"/><stop offset="0.775" stop-color="orange"/><stop offset="1" stop-color="#ff9c00"/></linearGradient><linearGradient id="c" x1="0.862" y1="7.183" x2="-0.501" y2="5.413" gradientUnits="objectBoundingBox"><stop offset="0" stop-color="#ff3a44"/><stop offset="1" stop-color="#c31162"/></linearGradient><linearGradient id="d" x1="-0.188" y1="9.903" x2="0.421" y2="9.113" gradientUnits="objectBoundingBox"><stop offset="0" stop-color="#32a071"/><stop offset="0.068" stop-color="#2da771"/><stop offset="0.476" stop-color="#15cf74"/><stop offset="0.801" stop-color="#06e775"/><stop offset="1" stop-color="#00f076"/></linearGradient></defs><path d="M195,60H7.5A7.522,7.522,0,0,1,0,52.5V7.5A7.522,7.522,0,0,1,7.5,0H195a7.522,7.522,0,0,1,7.5,7.5v45A7.522,7.522,0,0,1,195,60Z"/><path class="a" d="M195,1.2a6.307,6.307,0,0,1,6.3,6.3v45a6.307,6.307,0,0,1-6.3,6.3H7.5a6.307,6.307,0,0,1-6.3-6.3V7.5A6.307,6.307,0,0,1,7.5,1.2H195M195,0H7.5A7.522,7.522,0,0,0,0,7.5v45A7.522,7.522,0,0,0,7.5,60H195a7.522,7.522,0,0,0,7.5-7.5V7.5A7.522,7.522,0,0,0,195,0Z"/><path class="b" d="M71.128,15.365a4.058,4.058,0,0,1-1.118,3A4.363,4.363,0,0,1,66.7,19.7,4.636,4.636,0,0,1,62.028,15,4.636,4.636,0,0,1,66.7,10.3a4.644,4.644,0,0,1,1.847.377,3.716,3.716,0,0,1,1.408,1.006l-.791.792A3.039,3.039,0,0,0,66.7,11.406,3.479,3.479,0,0,0,63.209,15a3.539,3.539,0,0,0,6.009,2.59,2.832,2.832,0,0,0,.754-1.823H66.7V14.687h4.361A3.836,3.836,0,0,1,71.128,15.365Z"/><path class="b" d="M78.042,11.606h-4.1v2.853h3.7V15.54h-3.7v2.853h4.1V19.5H72.788v-9h5.254Z"/><path class="b" d="M82.918,19.5H81.761V11.606H79.247V10.5h6.185v1.106H82.918Z"/><path class="b" d="M89.907,19.5v-9h1.156v9Z"/><path class="b" d="M96.192,19.5H95.035V11.606H92.521V10.5h6.184v1.106H96.191V19.5Z"/><path class="b" d="M110.414,18.337a4.673,4.673,0,0,1-6.6,0A4.6,4.6,0,0,1,102.489,15a4.6,4.6,0,0,1,1.326-3.337,4.657,4.657,0,0,1,6.593.005A4.6,4.6,0,0,1,111.74,15,4.609,4.609,0,0,1,110.414,18.337Zm-5.745-.754a3.462,3.462,0,0,0,4.89,0,3.524,3.524,0,0,0,1-2.583,3.523,3.523,0,0,0-1-2.583,3.462,3.462,0,0,0-4.89,0,3.528,3.528,0,0,0-1,2.583A3.526,3.526,0,0,0,104.669,17.583Z"/><path class="b" d="M113.363,19.5v-9h1.408l4.374,7h.05l-.05-1.734V10.5H120.3v9h-1.207l-4.576-7.34h-.05l.05,1.734V19.5Z"/><path class="c" d="M102.2,32.628a6.38,6.38,0,1,0,6.4,6.38A6.288,6.288,0,0,0,102.2,32.628Zm0,10.246a3.876,3.876,0,1,1,3.6-3.867A3.691,3.691,0,0,1,102.2,42.874ZM88.234,32.628a6.38,6.38,0,1,0,6.4,6.38A6.288,6.288,0,0,0,88.234,32.628Zm0,10.246a3.876,3.876,0,1,1,3.6-3.867A3.691,3.691,0,0,1,88.234,42.874ZM71.615,34.585v2.706h6.477A5.647,5.647,0,0,1,76.618,40.7a6.632,6.632,0,0,1-5,1.982,7.2,7.2,0,0,1,0-14.4A6.905,6.905,0,0,1,76.5,30.211L78.407,28.3a9.444,9.444,0,0,0-6.791-2.731,9.909,9.909,0,1,0,0,19.816,9.058,9.058,0,0,0,6.911-2.779,8.943,8.943,0,0,0,2.344-6.331,8.813,8.813,0,0,0-.145-1.692Zm67.963,2.1a5.93,5.93,0,0,0-5.462-4.06,6.063,6.063,0,0,0-6.017,6.38,6.243,6.243,0,0,0,6.331,6.38,6.344,6.344,0,0,0,5.316-2.827l-2.175-1.45a3.644,3.644,0,0,1-3.141,1.764,3.245,3.245,0,0,1-3.093-1.933l8.531-3.528Zm-8.7,2.127a3.5,3.5,0,0,1,3.335-3.722,2.47,2.47,0,0,1,2.368,1.353ZM123.943,45h2.8V26.248h-2.8Zm-4.592-10.947h-.1a4.422,4.422,0,0,0-3.359-1.426,6.386,6.386,0,0,0,0,12.76,4.35,4.35,0,0,0,3.359-1.45h.1v.918c0,2.441-1.305,3.746-3.407,3.746a3.529,3.529,0,0,1-3.214-2.272l-2.441,1.015a6.08,6.08,0,0,0,5.655,3.77c3.287,0,6.066-1.933,6.066-6.646V33.014h-2.658v1.039Zm-3.214,8.821a3.88,3.88,0,0,1,0-7.733,3.6,3.6,0,0,1,3.407,3.891A3.565,3.565,0,0,1,116.137,42.874Zm36.572-16.626H146V45h2.8V37.9h3.908a5.832,5.832,0,1,0,0-11.647Zm.072,9.038H148.8V28.858h3.981a3.215,3.215,0,1,1,0,6.428Zm17.3-2.693a5.256,5.256,0,0,0-4.994,2.871L167.57,36.5a2.653,2.653,0,0,1,2.557-1.375,2.7,2.7,0,0,1,2.943,2.412v.193a6.185,6.185,0,0,0-2.919-.724c-2.678,0-5.4,1.472-5.4,4.222,0,2.509,2.2,4.125,4.656,4.125a3.95,3.95,0,0,0,3.571-1.833h.1v1.448h2.7V37.78C175.772,34.451,173.287,32.593,170.079,32.593Zm-.338,10.277c-.917,0-2.2-.458-2.2-1.592,0-1.447,1.592-2,2.967-2a4.985,4.985,0,0,1,2.557.627A3.393,3.393,0,0,1,169.741,42.87ZM185.615,33l-3.209,8.13h-.1L178.98,33h-3.016l4.994,11.363-2.847,6.321h2.919L188.726,33h-3.111ZM160.4,45h2.8V26.248h-2.8Z"/><path class="d" d="M15.653,11.307a3.006,3.006,0,0,0-.694,2.107V46.588a3,3,0,0,0,.694,2.107l.111.108L34.347,30.22v-.438L15.764,11.2Z"/><path class="e" d="M40.542,36.418l-6.194-6.2v-.438l6.2-6.2.14.08,7.339,4.17c2.1,1.191,2.1,3.14,0,4.332l-7.339,4.17Z"/><path class="f" d="M40.683,36.338,34.348,30,15.653,48.7c.691.732,1.832.822,3.117.092l21.913-12.45"/><path class="g" d="M40.683,23.666,18.77,11.215c-1.285-.73-2.426-.639-3.117.092L34.347,30Z"/><path class="h" d="M40.543,36.2,18.77,48.569a2.5,2.5,0,0,1-3.005.016h0l-.112.112h0l.111.108h0a2.5,2.5,0,0,0,3.005-.016L40.683,36.337Z"/><path class="i" d="M15.653,48.478a3.006,3.006,0,0,1-.694-2.107v.219a3,3,0,0,0,.694,2.107l.112-.112Z"/><path class="i" d="M48.022,31.948,40.543,36.2l.14.139,7.339-4.17A2.632,2.632,0,0,0,49.594,30h0A2.79,2.79,0,0,1,48.022,31.948Z"/><path class="j" d="M18.77,11.435l29.252,16.62A2.79,2.79,0,0,1,49.594,30h0a2.631,2.631,0,0,0-1.572-2.166L18.77,11.216c-2.1-1.191-3.811-.2-3.811,2.2v.219C14.959,11.233,16.674,10.244,18.77,11.435Z"/></svg>