<svg xmlns="http://www.w3.org/2000/svg" viewBox="0 0 252.944 54.59"><defs><style>.a{fill:#829ca8;}.b{fill:#ff7f7f;}.c{fill:#e87474;}.d{fill:none;stroke:#fff;stroke-linecap:round;stroke-miterlimit:10;stroke-width:4.9px;}</style></defs><rect class="a" width="4.828" height="29.171" transform="translate(61.725 14.463)"/><path class="a" d="M90.594,43.687l-4.827-.107c0-.1.208-9.576,0-14.43-.156-3.681-4.308-3.724-4.35-3.724a20.584,20.584,0,0,0-4.4.879V43.633H72.187V22.371l1.651-.55A37.844,37.844,0,0,1,81.419,20.6c3.41,0,8.915,2.266,9.174,8.347C90.806,33.956,90.6,43.292,90.594,43.687Z"/><path class="a" d="M108.047,37.95c-.017.013-2.724,1.689-4.753,1.245a3.776,3.776,0,0,1-3.144-3.508V26.232H108V21.4H100.15V15.243l-4.828.553V35.688c0,4.8,2.876,7.143,6.715,7.8a14.61,14.61,0,0,0,2.195.151,9.61,9.61,0,0,0,5.027-1.59Z"/><path class="a" d="M180.736,38.1c-.017.013-2.975,1.2-5,.754-1.764-.386-3.106-.954-3.156-3.167-.047-2.053,0-5.758,0-9.455h7.846V21.4h-7.846V15.242l-4.828.553V35.687c0,5.432,2.718,7.18,6.784,7.846a11.286,11.286,0,0,0,1.9.1,7.976,7.976,0,0,0,5.256-1.762Z"/><path class="a" d="M122.864,43.634c-3.32,0-7.12-.4-9.65-2.934-3.193-3.193-2.9-8.576-2.9-8.634v-.089c-.034-4.646,1.611-7.285,3-8.681a9.684,9.684,0,0,1,7.164-2.7c7.494,0,9.8,6.475,9.953,11.7.019.645-.044,2.581-.044,2.581H115.537a4.662,4.662,0,0,0,1.038,2.351c2.977,2.679,7.4,2.528,12.646.265l-.621,4.863A16.411,16.411,0,0,1,122.864,43.634Zm-7.6-13.58H125.1c-.609-2.068-1.911-4.627-4.629-4.627a5,5,0,0,0-3.737,1.271A5.808,5.808,0,0,0,115.261,30.054Z"/><path class="a" d="M245.383,43.634c-3.32,0-7.12-.4-9.65-2.934-3.193-3.193-2.9-8.576-2.9-8.634v-.089c-.034-4.646,1.611-7.285,3-8.681a9.684,9.684,0,0,1,7.164-2.7c7.494,0,9.8,6.475,9.953,11.7.019.645-.044,2.581-.044,2.581H238.056a4.662,4.662,0,0,0,1.038,2.351c2.977,2.679,7.4,2.528,12.646.265l-.621,4.863A16.411,16.411,0,0,1,245.383,43.634Zm-7.6-13.58h9.839c-.609-2.068-1.911-4.627-4.629-4.627a5,5,0,0,0-3.737,1.271A5.808,5.808,0,0,0,237.78,30.054Z"/><path class="a" d="M139.582,43.634h-4.828V22.786s.739-.466.981-.629a15.347,15.347,0,0,1,6.639-1.559,14.3,14.3,0,0,1,5.172,1l-.589,4.584a7.742,7.742,0,0,0-7.374.213V43.634Z"/><path class="a" d="M189.676,43.634h-4.828V22.786s.739-.466.981-.629a15.347,15.347,0,0,1,6.639-1.559,14.3,14.3,0,0,1,5.172,1l-.589,4.584a7.742,7.742,0,0,0-7.374.213V43.634Z"/><path class="a" d="M157.1,43.634c-.167,0-.337-.005-.509-.014a41.918,41.918,0,0,1-7.724-1.293l.428-5a49.563,49.563,0,0,0,7.781,1.294c2.426.134,2.834-1.366,2.882-1.948a2.39,2.39,0,0,0-1.475-2.158c-.243-.126-.754-.319-1.249-.5-2.573-.967-7.914-2.958-7.837-6.7.08-3.871,2.977-6.565,7.082-6.706a33.817,33.817,0,0,1,7.175,1.08l-.79,4.259c-1.906-.436-4.565-1.3-6.717-1.115-1.733.147-2.339,1.094-2.414,2.188-.107,1.545,1.849,2.422,4.885,3.562.685.258,1.86.618,2.374.851a5.962,5.962,0,0,1,3.338,6.224C164.015,40.74,162.282,43.634,157.1,43.634Z"/><rect class="a" width="4.828" height="21.828" transform="translate(200.339 21.806)"/><path class="a" d="M229.108,43.03V11.269l-4.828.553v9.81a12.158,12.158,0,0,0-5.01-1.032,10.609,10.609,0,0,0-9.967,9.494c-.546,5.556,1.62,9.845,5.519,11.861a19.231,19.231,0,0,0,8.406,1.711,29.388,29.388,0,0,0,4.689-.454C228.3,43.151,229.108,43.03,229.108,43.03Zm-4.829-15.887V38.811a16.772,16.772,0,0,1-7.24-1.144c-1.813-.874-3.222-4.042-2.931-7.1a5.783,5.783,0,0,1,5.323-5.142,8.817,8.817,0,0,1,4.623,1.512C224.114,26.984,224.279,27.143,224.279,27.143Z"/><circle class="a" cx="2.993" cy="2.993" r="2.993" transform="translate(199.76 12.249)"/><circle class="b" cx="27.295" cy="27.295" r="27.295" transform="translate(0 0)"/><path class="c" d="M27.934,2.571a24.724,24.724,0,0,0,0,49.447Z"/><path class="d" d="M16.092,33.29,27.934,21.3,39.777,33.29"/></svg>