<svg xmlns="http://www.w3.org/2000/svg" viewBox="0 0 505.889 109.18"><defs><style>.a{fill:#829ca8;}.b{fill:#ff7f7f;}.c{fill:#e87474;}.d{fill:none;stroke:#fff;stroke-linecap:round;stroke-miterlimit:10;stroke-width:9.8px;}</style></defs><rect class="a" width="9.657" height="58.342" transform="translate(123.45 28.925)"/><path class="a" d="M181.188,87.374l-9.654-.213c0-.19.416-19.152,0-28.859-.313-7.362-8.616-7.448-8.7-7.448a41.237,41.237,0,0,0-8.807,1.758V87.267h-9.657V44.742l3.3-1.1c1-.334,9.947-2.444,15.162-2.444,6.819,0,17.83,4.532,18.349,16.694C181.611,67.911,181.206,86.584,181.188,87.374Z"/><path class="a" d="M216.094,75.9c-.035.026-5.448,3.378-9.506,2.49-3.528-.772-6.287-3.6-6.287-7.016V52.464h15.692V42.807H200.3V30.484l-9.657,1.106V71.374c0,9.606,5.753,14.285,13.429,15.592a29.232,29.232,0,0,0,4.391.3,19.22,19.22,0,0,0,10.054-3.181Z"/><path class="a" d="M361.473,76.2c-.035.026-5.951,2.4-10.009,1.509-3.528-.772-6.212-1.907-6.313-6.333-.094-4.107,0-11.517,0-18.911h15.692V42.807H345.151V30.484l-9.657,1.106V71.374c0,10.864,5.435,14.359,13.567,15.692a22.687,22.687,0,0,0,3.811.2,15.95,15.95,0,0,0,10.511-3.524Z"/><path class="a" d="M245.728,87.267c-6.639,0-14.24-.808-19.3-5.868-6.385-6.385-5.808-17.151-5.808-17.268v-.177c-.068-9.292,3.222-14.57,5.992-17.362,3.555-3.58,8.375-5.4,14.328-5.4,14.988,0,19.6,12.951,19.9,23.406.038,1.29-.089,5.161-.089,5.161H231.072a9.3,9.3,0,0,0,2.076,4.7c5.954,5.358,14.806,5.056,25.293.53L257.2,84.722C252.867,86.27,249.6,87.267,245.728,87.267ZM230.522,60.108H250.2c-1.218-4.137-3.822-9.254-9.259-9.254-3.332,0-5.777.832-7.475,2.542A11.643,11.643,0,0,0,230.522,60.108Z"/><path class="a" d="M490.766,87.267c-6.639,0-14.24-.808-19.3-5.868-6.385-6.385-5.808-17.151-5.808-17.268v-.177c-.068-9.292,3.222-14.57,5.992-17.362,3.555-3.58,8.375-5.4,14.328-5.4,14.988,0,19.6,12.951,19.9,23.406.038,1.29-.089,5.161-.089,5.161H476.11a9.3,9.3,0,0,0,2.076,4.7c5.954,5.358,14.806,5.056,25.293.53l-1.241,9.727C497.9,86.27,494.635,87.267,490.766,87.267ZM475.56,60.108h19.677c-1.218-4.137-3.822-9.254-9.259-9.254-3.332,0-5.777.832-7.475,2.542A11.643,11.643,0,0,0,475.56,60.108Z"/><path class="a" d="M279.164,87.267h-9.657V45.573s1.479-.932,1.962-1.257A30.679,30.679,0,0,1,284.747,41.2a28.612,28.612,0,0,1,10.345,2l-1.178,9.169a15.488,15.488,0,0,0-14.749.424V87.267Z"/><path class="a" d="M379.352,87.267h-9.657V45.573s1.479-.932,1.962-1.257A30.679,30.679,0,0,1,384.935,41.2a28.6,28.6,0,0,1,10.344,2L394.1,52.364a15.488,15.488,0,0,0-14.749.424Z"/><path class="a" d="M314.189,87.267c-.335,0-.674-.009-1.018-.029a83.836,83.836,0,0,1-15.448-2.586l.855-10.009a99.127,99.127,0,0,0,15.562,2.588c4.851.269,5.668-2.733,5.763-3.895.127-1.557-.943-3.273-2.949-4.317-.487-.253-1.509-.637-2.5-1.008-5.145-1.933-15.828-5.916-15.674-13.4.159-7.742,5.954-13.13,14.165-13.413,4.917-.174,13.431,1.926,14.349,2.16l-1.579,8.518c-3.812-.872-9.13-2.6-13.434-2.231-3.465.294-4.677,2.188-4.828,4.376-.213,3.09,3.7,4.843,9.77,7.124,1.371.515,3.719,1.237,4.748,1.7,4.828,2.188,7.2,7.177,6.676,12.448C328.031,81.481,324.565,87.267,314.189,87.267Z"/><rect class="a" width="9.657" height="43.656" transform="translate(400.677 43.611)"/><path class="a" d="M458.215,86.06V22.538l-9.657,1.106V43.265A24.311,24.311,0,0,0,438.539,41.2,21.22,21.22,0,0,0,418.6,60.189c-1.093,11.111,3.239,19.69,11.037,23.723,4.6,2.379,10.957,3.422,16.811,3.422a58.88,58.88,0,0,0,9.378-.908C456.6,86.3,458.215,86.06,458.215,86.06Zm-9.656-31.773V77.623c-5.2.273-11.142-.68-14.48-2.288-3.627-1.747-6.443-8.084-5.863-14.2a11.565,11.565,0,0,1,10.645-10.283c3.638-.118,7.977,2.038,9.246,3.024C448.228,53.968,448.559,54.287,448.559,54.287Z"/><circle class="a" cx="5.985" cy="5.985" r="5.985" transform="translate(399.52 24.499)"/><circle class="b" cx="54.59" cy="54.59" r="54.59" transform="translate(0 0)"/><path class="c" d="M55.869,5.143a49.447,49.447,0,0,0,0,98.894Z"/><path class="d" d="M32.183,66.579,55.869,42.6,79.555,66.579"/></svg>