<svg xmlns="http://www.w3.org/2000/svg" viewBox="0 0 163.472 33.562"><defs><style>.a{fill:rgba(0,166,153,0.8);}.a,.b,.c,.d{fill-rule:evenodd;}.b{fill:#00a699;opacity:0.41;}.c{fill:rgba(0,166,153,0.4);}.d{fill:rgba(0,166,153,0.5);}</style></defs><g transform="translate(-1051.817 -656.137)"><path class="a" d="M.5,21.987V58.576L17.276,37.444,34.057,58.576V37.2h0V21.936L17.276.8.5,21.936Z" transform="translate(1051.013 690.194) rotate(-90)"/><path class="b" d="M.5,63.225V99.816L17.23,78.743V42.1L.5,63.173Z" transform="translate(1115.473 690.197) rotate(-90)"/><path class="b" d="M.5,42.588V79.176L17.23,58.109V21.466L.5,42.539Z" transform="translate(1083.263 690.197) rotate(-90)"/><path class="c" d="M.5,63.264V99.855L17.276,78.721,34.057,99.855V78.475h0V63.212L17.276,42.078.5,63.212Z" transform="translate(1115.434 690.194) rotate(-90)"/><path class="d" d="M.5,42.627V79.213L17.276,58.079,34.057,79.213V57.835h0V42.573L17.276,21.441.5,42.573Z" transform="translate(1083.224 690.194) rotate(-90)"/><path class="b" d="M.5,21.952V58.538L17.23,37.471V.828L.5,21.9Z" transform="translate(1051.051 690.197) rotate(-90)"/></g></svg>